<?xml version="1.0" encoding="UTF-8" standalone="no"?>
<svg
   width="16"
   height="16"
   version="1.1"
   id="svg1"
   sodipodi:docname="edit-clear-history.svg"
   xmlns:inkscape="http://www.inkscape.org/namespaces/inkscape"
   xmlns:sodipodi="http://sodipodi.sourceforge.net/DTD/sodipodi-0.dtd"
   xmlns="http://www.w3.org/2000/svg"
   xmlns:svg="http://www.w3.org/2000/svg">
  <sodipodi:namedview
     id="namedview1"
     pagecolor="#ffffff"
     bordercolor="#000000"
     borderopacity="0.25"
     inkscape:showpageshadow="2"
     inkscape:pageopacity="0.0"
     inkscape:pagecheckerboard="0"
     inkscape:deskcolor="#d1d1d1" />
  <defs
     id="defs1">
    <style
       id="current-color-scheme"
       type="text/css">
   .ColorScheme-Text { color:#565656; } .ColorScheme-Highlight { color:#4285f4; }
  </style>
  </defs>
  <path
     fill="context-fill" fill-opacity="context-fill-opacity"
     d="M 8,0 A 8,8 0 0 0 1.4433594,3.4433594 L 0,2 V 6 H 0.2597656 2.3515625 4 L 2.8828125,4.882813 A 6,6 0 0 1 8,2 6,6 0 0 1 14,8 6,6 0 0 1 8,14 6,6 0 0 1 2.3496094,10 H 0.265625 A 8,8 0 0 0 8,16 8,8 0 0 0 16,8 8,8 0 0 0 8,0 Z M 5,5 V 6 C 5,6.276 5.099297,6.53765 5.2792969,6.71875 L 6.560547,8 5.2792969,9.28125 C 5.0992969,9.46225 5,9.7239 5,10 v 1 h 1 c 0.28,0 0.540703,-0.10025 0.720703,-0.28125 L 8,9.433594 9.279297,10.71875 C 9.459297,10.89975 9.72,11 10,11 h 1 V 10 C 11,9.7239 10.9007,9.46215 10.720703,9.28125 L 9.439453,8 10.720703,6.71875 C 10.900703,6.53765 11,6.276 11,6 V 5 H 10 C 9.72,5 9.459297,5.10025 9.279297,5.28125 L 8,6.558594 6.720703,5.28125 C 6.540703,5.10025 6.28,5 6,5 Z"
     id="path1" />
</svg>
